<?xml version="1.0" encoding="UTF-8" standalone="no"?>
<svg
   version="1.0"
   width="638.000000pt"
   height="501.000000pt"
   viewBox="0 0 638.000000 501.000000"
   preserveAspectRatio="xMidYMid meet"
   id="svg40"
   sodipodi:docname="haniti.svg"
   inkscape:version="1.1 (c68e22c387, 2021-05-23)"
   xmlns:inkscape="http://www.inkscape.org/namespaces/inkscape"
   xmlns:sodipodi="http://sodipodi.sourceforge.net/DTD/sodipodi-0.dtd"
   xmlns="http://www.w3.org/2000/svg"
   xmlns:svg="http://www.w3.org/2000/svg">
  <defs
     id="defs44" />
  <sodipodi:namedview
     id="namedview42"
     pagecolor="#ffffff"
     bordercolor="#666666"
     borderopacity="1.0"
     inkscape:pageshadow="2"
     inkscape:pageopacity="0.0"
     inkscape:pagecheckerboard="0"
     inkscape:document-units="pt"
     showgrid="false"
     inkscape:zoom="1.2437304"
     inkscape:cx="424.93132"
     inkscape:cy="334.07561"
     inkscape:window-width="1920"
     inkscape:window-height="1017"
     inkscape:window-x="1912"
     inkscape:window-y="-8"
     inkscape:window-maximized="1"
     inkscape:current-layer="svg40" />
  <metadata
     id="metadata2">
Created by potrace 1.16, written by Peter Selinger 2001-2019
</metadata>
  <path
     d="m 26,194.8 c 0,133.8 0.3,174.1 1.2,175 1.7,1.7 579.9,1.7 581.6,0 0.9,-0.9 1.2,-41.2 1.2,-175 V 21 h -4.5 -4.5 v 133.7 c 0,104 -0.3,133.4 -1.2,132.5 -1.8,-1.8 -4.3,-1.5 -6.3,0.8 -2,2.2 -2.4,2.3 -4.3,1.1 -1.1,-0.6 -0.6,-2.5 2.3,-8.6 8.2,-17.7 9.8,-28.9 5.1,-35.8 -11,-16.1 -39.5,-46.2 -58.6,-61.8 -16.1,-13.1 -17.5,-13.9 -24.3,-13.9 -6.5,0 -17.2,3.2 -26.7,8 -3.3,1.7 -6.4,3 -6.9,3 -1.9,0 -1.9,-3 0,-5.3 2.9,-3.8 2.4,-5.3 -3.3,-9.2 -5.9,-3.9 -7.4,-4.2 -10.6,-1.9 -3.4,2.4 -2.7,6.1 2.3,12.8 2.5,3.3 4.3,6.1 4.1,6.3 -0.2,0.3 -2.1,0 -4.2,-0.6 -2.2,-0.5 -6.7,-1.3 -10.1,-1.7 l -6.3,-0.7 -7.2,5.9 c -3.9,3.3 -9.8,8.5 -13,11.7 -6.7,6.7 -24.8,27.6 -24.8,28.7 0,1.6 10.9,14.9 20.3,24.7 6.8,7 11,10.6 12.9,11 2,0.4 5.4,3.4 11.1,9.7 10.3,11.5 34.5,35.7 46,45.9 5.7,5.2 8.7,8.6 8.7,10 0,3.6 29.1,30.9 35.6,33.4 2.5,0.9 26.3,-20.1 38.6,-34.2 7.5,-8.6 7.8,-9.1 7.8,-14 0,-2.7 -0.6,-7.6 -1.4,-10.8 -1.6,-6.9 -0.9,-7.1 5.4,-2.1 2.5,2 5.5,4 6.8,4.5 L 601,305 V 333.5 362 H 568.5 536 l -6.7,-5.7 c -3.8,-3.1 -8.5,-7.2 -10.7,-9.1 l -3.8,-3.4 -3.1,3.1 -3.1,3.1 5.9,6 5.9,6 h -53 -53.1 l 1,-5.5 c 0.6,-3 0.8,-5.7 0.6,-5.9 -0.2,-0.2 -3.1,0 -6.4,0.4 -3.3,0.5 -10,1.1 -14.8,1.5 l -8.9,0.7 0.4,4.4 0.3,4.4 h -64 -64 l 0.3,-4.4 0.4,-4.4 -8.9,-0.7 c -4.8,-0.4 -11.5,-1 -14.8,-1.5 -3.3,-0.4 -6.2,-0.6 -6.4,-0.4 -0.2,0.2 0,2.9 0.6,5.9 l 1,5.5 h -72.9 c -40,0 -72.8,-0.2 -72.8,-0.4 0,-0.4 34.1,-21.1 38.7,-23.5 1.7,-0.8 3.7,-0.7 9,0.5 4.4,1 9.6,1.4 14.8,1.2 6.8,-0.4 9,-0.9 13.5,-3.5 12.9,-7.4 19,-19.8 18.1,-36.5 -0.3,-4.6 -0.2,-4.6 5.9,-9.5 3.4,-2.6 8.2,-6.4 10.5,-8.3 2.4,-1.9 7.8,-6.2 12.1,-9.5 4.2,-3.3 9.5,-7.7 11.8,-9.7 l 4.2,-3.7 1.1,2.9 c 1.1,3 3.7,4.1 13.8,5.7 l 5,0.9 -5.5,3.6 c -12.2,8 -12,7.7 -13.3,21.8 -0.8,9.3 -0.8,17.2 0.2,31.5 0.7,10.4 1.5,19.3 1.9,19.7 1.6,1.6 11.4,2.8 28.1,3.5 15.6,0.6 17.7,0.4 20.7,-1.2 3.1,-1.7 4.7,-1.7 25,-0.6 17,1 26.4,1 43.9,0 20.3,-1.1 22.5,-1 24.6,0.5 2.8,2 17.7,2.2 34.4,0.5 15.5,-1.5 15.1,-1.3 15.9,-10.1 2.4,-27.3 1.5,-54 -2,-57.9 -0.9,-1.1 -4.8,-4 -8.7,-6.6 l -6.9,-4.8 3.8,-0.7 c 2.2,-0.4 5.6,-1 7.7,-1.3 4.5,-0.7 8.1,-3.9 7.4,-6.5 -0.3,-1.1 0.3,-2.6 1.4,-3.6 2.7,-2.4 2.4,-3.5 -1.7,-7.5 -1.9,-1.8 -6.1,-6.6 -9.2,-10.6 l -5.6,-7.2 -2.2,2 c -1.1,1.1 -2.7,3.1 -3.4,4.5 -1.3,2.4 -1.1,2.8 5,8.9 l 6.4,6.5 h -3.7 c -2.2,0 -3.9,0.5 -4.1,1.2 -2.7,10.1 -4.1,9.7 -8.6,-2.2 -5.8,-15.1 -9.6,-21.4 -15.4,-25 -8.4,-5.1 -67.6,-7.4 -97.1,-3.7 -7.1,0.9 -13.1,1.5 -13.3,1.3 -0.1,-0.2 1.9,-2 4.5,-4 2.6,-1.9 8.2,-6.3 12.3,-9.6 4.1,-3.3 8.9,-7.1 10.6,-8.3 1.7,-1.2 5.7,-4.2 8.9,-6.5 5.1,-4 6.1,-4.3 9.3,-3.7 19.8,3.8 37.1,-6.5 41.7,-24.9 1,-3.9 1.5,-8.6 1.2,-10.8 -0.5,-3.8 -0.3,-4.3 5.6,-10.2 3.4,-3.3 10.1,-10.6 14.9,-16.1 10.9,-12.4 11.2,-14.5 4.4,-23.6 -2.4,-3.2 -5.3,-7.8 -6.5,-10.2 -1.2,-2.4 -3.1,-4.8 -4.4,-5.4 -1.2,-0.5 -5.1,-2.4 -8.7,-4.1 -12.5,-6 -23.1,-6.5 -34,-1.5 -15.9,7.2 -26,12.1 -30.7,14.8 -2.9,1.6 -8,4.6 -11.4,6.5 -3.4,1.9 -10.5,6.3 -15.7,9.7 -5.2,3.5 -11.1,6.5 -13.1,6.9 -2,0.3 -9,1.7 -15.6,3 -6.6,1.4 -14.5,2.9 -17.5,3.4 -18.1,2.7 -29.4,5.8 -44.4,11.9 -5.5,2.2 -10.9,5 -12.1,6.1 -1.2,1.1 -5.1,4.1 -8.7,6.7 -7.9,5.8 -14,10.7 -34.5,28.2 -27.2,23.1 -34.1,30.2 -46.8,47.7 -1.8,2.5 -6.5,10.8 -10.7,18.9 -1.7,3.3 -6.1,12.6 -7.7,16.5 -0.5,1.4 -1.9,4.8 -3.1,7.6 -1.6,3.8 -4.3,7.1 -11.2,13.5 -5,4.6 -9.4,8.5 -9.9,8.7 C 35.4,296 35,236.8 35,158.6 V 21 H 30.5 26 Z M 354.4,91.9 c 4.9,2 2.1,2.3 -4.7,0.5 l -6.5,-1.8 -5.2,4.4 -5.2,4.4 0.6,6.3 c 0.8,7.3 1.4,9.3 3,9.3 1.1,0 17.9,-12.2 22.6,-16.5 3.4,-3.1 8.3,-1.8 9.9,2.5 0.5,1.7 3.1,5.7 5.6,8.9 2.5,3.3 4.5,6.2 4.5,6.5 0,0.4 -4.8,6 -10.6,12.6 l -10.7,11.9 -6.1,-6.1 c -11.9,-11.9 -25.3,-15.2 -40.7,-10 -5.5,1.9 -7.7,3.3 -12.3,8.2 -8,8.4 -11,15.3 -11,25.5 0,6.6 0.5,9 2.7,13.8 2.5,5.4 8.2,13.8 9.9,14.5 1.8,0.8 0.2,2.5 -9.4,10 -5.7,4.4 -18.4,14.4 -28.3,22.2 -9.9,7.8 -22.3,17.5 -27.5,21.5 -5.2,4.1 -13.4,10.4 -18.1,14.2 -24.3,19.2 -38.8,30.3 -39.6,30.3 -0.4,0 -1.8,-1.8 -3.1,-4 -4.1,-7.3 -13.8,-12.7 -24.5,-13.7 -15.8,-1.4 -33.3,9.1 -40.5,24.4 -2.2,4.8 -2.7,7.2 -2.7,13.8 0,9.3 1.9,15.3 7.2,22.2 1.9,2.5 3.3,4.6 3.1,4.7 -0.2,0.1 -6.1,3.8 -13.3,8.1 -30.3,18.3 -31.6,18.8 -32.5,12.8 -0.3,-2.1 -2,-4.4 -5.2,-7.3 -5.2,-4.5 -7.4,-9.9 -6.3,-15.1 0.4,-1.7 0.2,-3.6 -0.4,-4.3 -0.9,-1.1 -0.3,-2.1 2.9,-4.8 2.2,-1.9 4,-4.1 4,-4.9 0,-0.8 -2.5,-4.4 -5.5,-8.1 -5.2,-6.3 -5.7,-6.6 -11,-7.3 -3,-0.3 -5.5,-0.9 -5.4,-1.3 0,-0.4 4,-4.3 8.9,-8.7 8.3,-7.5 9,-8.5 12,-16.5 6.8,-17.7 18.2,-37.9 29.1,-51.7 13,-16.3 71.4,-65 86.9,-72.4 8.8,-4.2 24.7,-9.3 35,-11.3 4.7,-0.8 15.9,-2.9 25,-4.6 24.1,-4.4 24.8,-4.6 33.5,-10.4 18,-11.8 44.7,-26.2 59.6,-32.1 6.9,-2.7 14.6,-2.9 20.3,-0.6 z m -22.8,49.6 c 12.4,7.3 13.1,25.1 1.2,32.8 -13.1,8.5 -30.1,-0.5 -30.1,-15.8 0,-7.1 2.7,-12.2 8.7,-16.3 6.3,-4.2 13.7,-4.5 20.2,-0.7 z m 187.7,35.7 c 15.7,10.8 41,34.7 58.3,54.9 12.2,14.3 15.4,19 15.4,23.1 0,4.6 -2.6,13 -6.1,19.9 -5.3,10.7 -0.1,14.5 -54.2,-39.4 -36.8,-36.7 -48.1,-48.5 -47.3,-49.5 1.4,-1.9 12,-7.2 18.6,-9.3 7.4,-2.4 11.6,-2.3 15.3,0.3 z m -49.4,12.3 c 7.2,1.7 7.7,2 18,11.5 5.8,5.4 28.2,27.5 49.6,49.1 l 39.1,39.4 2.2,9 c 3.3,13.6 3.1,15.3 -2.7,22.2 -9.1,10.9 -31.3,31.3 -34.1,31.3 -3.7,0 -27.7,-23 -29.4,-28.1 -0.7,-2.1 -4.8,-6.6 -11.6,-12.7 -17.2,-15.6 -26.2,-24.5 -40.2,-39.9 -9.1,-10 -14.2,-14.9 -16.2,-15.4 -4.5,-1.2 -28.6,-26.2 -28.6,-29.6 0,-2.2 19.7,-23.6 31,-33.6 6.2,-5.5 6.7,-5.8 11,-5.3 2.5,0.2 7.8,1.2 11.9,2.1 z m -105.9,41 c 9.8,1.2 12.9,2 14.7,3.7 4.3,4.1 12.3,22.1 12.3,27.8 0,1.5 -5.7,1.6 -68.5,1.6 -62.8,0 -68.5,-0.1 -68.5,-1.6 0,-5.8 8,-23.7 12.3,-27.9 1.8,-1.6 4.8,-2.3 15.2,-3.6 19.4,-2.2 21.1,-2.3 46.5,-2 13.7,0.2 28.7,1 36,2 z m -108.5,8.6 c -1.9,3.5 -4.6,9.9 -6.1,14.1 -1.4,4.3 -3,8 -3.5,8.4 -1.6,1 -3.8,-1.6 -4.1,-4.9 -0.3,-3 -0.6,-3.2 -4.8,-3.7 l -4.5,-0.5 3,-2 c 1.7,-1.1 6.2,-4.5 10,-7.7 12.3,-10.1 13,-10.6 13.2,-10.4 0.2,0.1 -1.3,3.1 -3.2,6.7 z m 142.2,35.4 c 4,2.1 9.2,5.5 11.5,7.6 l 4.3,3.7 v 22.3 c 0,12.3 -0.4,24.5 -0.8,27 -1,5.8 -0.8,5.7 -22,6.6 -13.8,0.5 -16.2,0.4 -19.7,-1.2 -3.7,-1.7 -5.5,-1.7 -26.9,-0.6 -18.2,1 -27.5,1 -44.5,0 -20.2,-1.1 -21.8,-1.1 -25.6,0.6 -3.6,1.6 -5.8,1.7 -19.8,1.1 -19.6,-0.8 -20.8,-1 -21.6,-4.4 -1,-4.8 -1.7,-39.6 -0.9,-46.2 0.8,-6.2 1,-6.5 5.8,-10.2 10.6,-8 13.9,-9.2 26.5,-9.9 6.3,-0.4 37.4,-0.6 69,-0.5 l 57.6,0.2 z m -243.6,15.3 c 11.4,7.3 11.7,23.2 0.5,31 -3.3,2.3 -5,2.7 -10.6,2.7 -5.8,0 -7.2,-0.4 -10.3,-2.8 -4.7,-3.5 -6.7,-6.5 -7.8,-11.7 -1.7,-7.5 2.2,-15.6 9.6,-20.1 4.8,-3 13.1,-2.6 18.6,0.9 z m -97.2,20.9 c 2.2,2.9 4.1,5.6 4.1,6 0,0.4 -1.6,2.1 -3.5,3.6 -4,3.2 -5.9,2.8 -9.8,-2.6 -3.2,-4.2 -6.9,-11.6 -6.3,-12.5 0.2,-0.4 2.9,-0.5 5.9,-0.2 5.2,0.5 5.7,0.8 9.6,5.7 z m -14.4,11.2 c 3.7,4.9 7.3,9.2 8.1,9.5 1,0.4 1.4,2.2 1.4,5.8 0,5.6 2.5,12.3 5.4,14.7 1.6,1.3 5.6,8.2 5.6,9.6 0,0.3 -6.3,0.5 -14,0.5 H 35 V 337.5 C 35,324 35.2,313 35.4,313 c 0.2,0 3.4,4 7.1,8.9 z"
     id="path4"
     style="fill:#000000;stroke:none;stroke-width:0.1" />
  <path
     d="m 235.1,140.6 c -1.4,1 -10.1,3 -22,4.9 -20.8,3.5 -27.6,5.6 -38.3,12.1 -8.2,5 -19.8,15.1 -19.8,17.2 0,1.2 5.1,4.5 16.1,10.6 l 16,8.8 6.2,-4.3 c 38.8,-27.2 54.7,-39.6 54.7,-42.7 -0.1,-1.6 -7.7,-8.2 -9.6,-8.2 -0.5,0 -2,0.7 -3.3,1.6 z m -12.1,9.3 c -1.8,3.5 -1.2,6.1 2,7.9 1.6,0.9 3,2 3,2.3 0,0.3 -2.4,2.2 -5.2,4.2 -2.9,2 -9.1,6.3 -13.8,9.6 -4.7,3.4 -10.9,7.7 -13.8,9.7 -2.8,2 -5.5,4 -5.8,4.5 -1.1,1.8 -4.1,0.7 -16.7,-6.2 l -12.9,-7.1 2.4,-2.5 c 6.2,-6.6 21.5,-16.2 30.8,-19.2 4.2,-1.3 24.3,-4.9 28.3,-5 2.4,-0.1 2.6,0.1 1.7,1.8 z"
     id="path6"
     style="fill:#000000;stroke:none;stroke-width:0.1" />
  <path
     d="m 137,185.8 c -21.7,17.5 -43,46.3 -43,58.2 0,4.8 2.7,9.3 7,11.5 2.7,1.4 3,1.3 15.6,-8.1 7.1,-5.3 16.7,-12.4 21.4,-15.8 29.9,-22.1 36,-26.8 36,-27.4 0,-1.1 -1,-2.2 -13.1,-14 -6.6,-6.3 -12.4,-11.2 -13.5,-11.2 -1.1,0 -5.7,3.1 -10.4,6.8 z m 21.4,7.5 10.8,10.2 -12.3,9.2 c -6.8,5 -15.8,11.7 -19.9,14.7 -4.1,3.1 -7.7,5.6 -8,5.6 -0.3,0 -4.1,-3.6 -8.5,-8 -7.5,-7.6 -7.8,-8 -6.6,-10.4 2.8,-5.1 30.5,-31.7 33,-31.6 0.4,0 5.5,4.6 11.5,10.3 z m -33.5,42.4 c 0,0.7 -17,13.6 -20.5,15.6 -2,1.1 -4.3,-0.9 -6.1,-5.2 -1.4,-3.2 -1.3,-3.7 2.1,-10.5 1.9,-3.9 4.9,-9.1 6.6,-11.4 l 3.1,-4.3 7.5,7.5 c 4.1,4.1 7.4,7.9 7.3,8.3 z"
     id="path8"
     style="fill:#000000;stroke:none;stroke-width:0.1" />
  <path
     d="m 194.8,193.8 c -5.7,4.5 -6.9,7.5 -4,10.4 2.7,2.8 5.4,1.9 11.7,-3.6 4.6,-4.1 4.9,-4.6 4,-7.2 -1.6,-4.5 -5.8,-4.3 -11.7,0.4 z"
     id="path10"
     style="fill:#000000;stroke:none;stroke-width:0.1" />
  <path
     d="m 123.2,249 c -6.4,5.3 -7.5,7.6 -4.6,10.4 3,3 6.1,1.7 14.2,-5.8 3.3,-3.1 4.1,-6.3 2,-8.4 -2.2,-2.2 -5.3,-1.2 -11.6,3.8 z"
     id="path12"
     style="fill:#000000;stroke:none;stroke-width:0.1" />
  <path
     d="m 453.8,195.3 c -1.4,1.3 -2.9,3.4 -3.3,4.7 -1,3.2 1.4,9.9 4.4,11.8 1.3,1 6.1,5.2 10.5,9.4 10,9.5 13.3,12.1 14,10.9 1.1,-1.7 -2.5,-12.6 -6.7,-20.4 -4.3,-8 -12.9,-18.7 -15.1,-18.7 -0.7,0 -2.4,1.1 -3.8,2.3 z"
     id="path14"
     style="fill:#000000;stroke:none;stroke-width:0.1" />
  <path
     d="m 460.5,241.5 c -2.9,2.8 -3.2,6.3 -0.8,11.3 2,4.2 49,51.8 54.3,55.1 7,4.2 15,1.7 15,-4.7 -0.1,-12.7 -33.5,-49.7 -55.5,-61.2 -6.9,-3.6 -9.8,-3.8 -13,-0.5 z"
     id="path16"
     style="fill:#000000;stroke:none;stroke-width:0.1" />
  <path
     d="m 538.6,293.7 c 2.2,2.7 6.5,7.3 9.7,10.3 3.3,2.9 6.3,6.4 6.8,7.7 1,2.6 7.7,6.3 11.4,6.3 1.5,0 4,-1.4 6.3,-3.5 l 3.7,-3.5 -5.7,-5.5 C 561.9,297.1 545.6,289 537.7,289 h -2.9 z"
     id="path18"
     style="fill:#000000;stroke:none;stroke-width:0.1" />
  <path
     d="m 238.7,286.7 c -0.9,0.8 -0.9,6 -0.1,9.1 0.4,1.3 2.3,3.1 4.3,4.2 3.4,1.7 5.2,1.8 21.4,1.1 9.7,-0.5 18,-1 18.3,-1.4 0.7,-0.7 -7.2,-6.1 -12.1,-8.2 -9.6,-4 -29.6,-7.1 -31.8,-4.8 z"
     id="path20"
     style="fill:#000000;stroke:none;stroke-width:0.1" />
  <path
     d="m 385.8,288 c -8.1,2 -20.5,7.7 -22.7,10.4 -0.8,0.9 -1.2,1.6 -1,1.7 0.2,0 8.5,0.4 18.4,0.9 16.6,0.8 18.2,0.7 21.7,-1.1 3.9,-2 5.4,-5.6 4.6,-11 -0.3,-2.2 -0.8,-2.4 -6.8,-2.6 -3.7,-0.1 -9.8,0.6 -14.2,1.7 z"
     id="path22"
     style="fill:#000000;stroke:none;stroke-width:0.1" />
  <path
     d="m 315,305.6 c -21.4,1.7 -32.2,4 -36.9,8 -3.9,3.2 -4,6.4 -0.3,10.5 3.7,4.2 9.8,4.8 44.7,4.8 34.9,0 41,-0.6 44.7,-4.8 7.4,-8.3 -1.2,-14.5 -23.3,-17 -12.4,-1.3 -23.3,-1.9 -28.9,-1.5 z"
     id="path24"
     style="fill:#000000;stroke:none;stroke-width:0.1" />
  <path
     d="m 54.2,378.6 c -1.4,1 -2.2,2.6 -2.2,4.4 0,4 3.2,6 9.7,6 H 67 v 7.3 c 0,8.6 1.6,11.7 6,11.7 5.1,0 6,-2.7 6,-17.7 V 377 H 67.7 c -8.6,0 -11.8,0.4 -13.5,1.6 z"
     id="path26"
     style="fill:#000000;stroke:none;stroke-width:0.1" />
  <path
     d="m 163.3,378.5 c -4.9,3.5 -1.6,10.5 4.9,10.5 h 2.8 v 18.5 18.5 h -2.8 c -4.1,0 -7.2,2.6 -7.2,6 0,4.6 3,6 13.2,6 H 183 V 413.5 389 h 8 c 7.3,0 8.3,0.3 10.5,2.5 2.5,2.4 2.5,2.5 2.5,22.7 0,22.7 0.5,24.8 6,24.8 5.7,0 6.2,-2.1 5.8,-27.7 -0.3,-20.8 -0.5,-23.1 -2.3,-26.3 -4,-6.8 -6.6,-7.5 -28.5,-7.8 -16.6,-0.3 -19.8,-0.1 -21.7,1.3 z"
     id="path28"
     style="fill:#000000;stroke:none;stroke-width:0.1" />
  <path
     d="m 294.2,378.6 c -1.4,1 -2.2,2.6 -2.2,4.4 0,4 3.2,6 9.7,6 h 5.3 v 7.3 c 0,8.6 1.6,11.7 6,11.7 5.1,0 6,-2.7 6,-17.7 V 377 h -11.3 c -8.6,0 -11.8,0.4 -13.5,1.6 z"
     id="path30"
     style="fill:#000000;stroke:none;stroke-width:0.1" />
  <path
     d="m 417.2,378.6 c -1.4,1 -2.2,2.6 -2.2,4.4 0,3.9 3.2,6 9.2,6 h 4.8 v 18.5 18.5 h -9.3 c -10.7,0 -13.7,1.3 -13.7,6 0,5.2 2.6,6 19.7,6 H 441 V 407.5 377 h -10.8 c -8.1,0 -11.3,0.4 -13,1.6 z"
     id="path32"
     style="fill:#000000;stroke:none;stroke-width:0.1" />
  <path
     d="m 521.2,378.6 c -5.1,3.5 -1.4,10.4 5.5,10.4 h 3.3 v 22.8 c 0,25.3 0.4,27.2 6,27.2 5.6,0 6,-1.9 6,-27.2 V 389 h 8 8 v 22.8 c 0,25.3 0.4,27.2 6,27.2 5.6,0 6,-1.9 6,-27.2 V 389 h 3.3 c 4.5,0 7.7,-2.5 7.7,-6 0,-5.7 -1.6,-6 -31,-6 -22.4,0 -26.9,0.2 -28.8,1.6 z"
     id="path34"
     style="fill:#000000;stroke:none;stroke-width:0.1" />
  <path
     d="m 535.2,447.6 c -5.1,3.5 -1.4,10.4 5.5,10.4 3.1,0 3.3,0.2 3.3,3.3 0,4.5 2.5,7.7 6,7.7 3.5,0 6,-3.2 6,-7.7 0,-3.1 0.2,-3.3 3.8,-3.3 5,0 8.2,-2.3 8.2,-6 0,-5.1 -2.7,-6 -17.5,-6 -10.2,0 -13.5,0.3 -15.3,1.6 z"
     id="path36"
     style="fill:#000000;stroke:none;stroke-width:0.1" />
  <circle
     style="fill:#000000;fill-rule:evenodd;stroke-width:0.75"
     id="path85"
     cx="192.66637"
     cy="449.55481"
     r="7.537807" />
  <circle
     style="fill:#000000;fill-rule:evenodd;stroke-width:0.75"
     id="path85-6"
     cx="425.13232"
     cy="451.66541"
     r="7.537807" />
</svg>
